<?xml version="1.0" standalone="no"?>
<!DOCTYPE svg PUBLIC "-//W3C//DTD SVG 20010904//EN"
 "http://www.w3.org/TR/2001/REC-SVG-20010904/DTD/svg10.dtd">
<svg version="1.0" xmlns="http://www.w3.org/2000/svg"
 width="85.000000pt" height="85.000000pt" viewBox="0 0 85.000000 85.000000"
 preserveAspectRatio="xMidYMid meet">
<metadata>
Created by potrace 1.14, written by Peter Selinger 2001-2017
</metadata>
<g transform="translate(0.000000,85.000000) scale(0.100000,-0.100000)"
fill="#000000" stroke="none">
<path d="M325 843 c-5 -5 -18 -18 -28 -29 -18 -22 -16 -24 234 -277 251 -256
252 -256 275 -239 13 9 25 23 28 30 7 17 -496 525 -509 515z"/>
<path d="M487 822 l-27 -28 28 -27 28 -27 27 28 27 28 -28 27 -28 27 -27 -28z"/>
<path d="M210 725 l-24 -26 69 -69 c38 -39 74 -70 80 -70 6 0 21 11 32 24 l21
24 -72 71 c-39 39 -74 71 -77 71 -3 0 -16 -11 -29 -25z"/>
<path d="M578 729 c-23 -25 -23 -31 7 -59 l25 -23 25 23 c30 28 30 30 5 58
-25 26 -39 27 -62 1z"/>
<path d="M117 632 l-27 -28 75 -74 c64 -64 76 -72 90 -60 42 35 39 46 -33 120
-38 38 -71 70 -74 70 -2 0 -16 -13 -31 -28z"/>
<path d="M670 635 l-23 -25 23 -25 c28 -30 33 -30 60 -8 26 22 25 35 -3 61
-29 27 -29 27 -57 -3z"/>
<path d="M27 542 l-28 -29 70 -71 c39 -40 74 -72 79 -72 5 0 19 11 32 25 l24
26 -75 75 -75 75 -27 -29z"/>
<path d="M261 406 l-164 -164 26 -27 c25 -27 25 -27 48 -9 13 11 88 84 167
164 l142 146 -28 27 -28 27 -163 -164z"/>
<path d="M767 542 l-27 -28 28 -27 28 -27 27 28 27 28 -28 27 -28 27 -27 -28z"/>
<path d="M353 313 l-162 -166 27 -28 27 -29 165 165 165 165 -30 30 -30 29
-162 -166z"/>
<path d="M27 360 c-22 -26 -22 -30 9 -57 l27 -23 24 25 25 24 -29 25 c-34 31
-34 31 -56 6z"/>
<path d="M447 222 c-86 -86 -157 -162 -157 -168 0 -6 12 -20 26 -33 l25 -22
132 134 c73 74 145 148 161 165 l30 32 -24 25 c-13 14 -26 25 -29 25 -4 0 -77
-71 -164 -158z"/>
<path d="M677 266 c-32 -30 -32 -27 -8 -54 21 -25 28 -27 44 -9 37 38 38 43
14 66 l-24 21 -26 -24z"/>
<path d="M581 168 c-22 -28 -23 -30 -6 -48 22 -24 29 -25 55 -3 26 22 25 35
-2 60 l-23 21 -24 -30z"/>
<path d="M487 72 l-27 -28 24 -23 24 -22 26 24 c31 29 31 31 9 57 -22 26 -24
25 -56 -8z"/>
</g>
</svg>
